<svg width="293" height="93" xmlns="http://www.w3.org/2000/svg">
 <defs>
  <style>.cls-1 {
        fill: #e9c18e;
      }

      .cls-1, .cls-2, .cls-3, .cls-5 {
        fill-rule: evenodd;
      }

      .cls-2 {
        fill: #76a159;
      }

      .cls-3 {
        fill: #9bce74;
      }

      .cls-4 {
        fill: #c37445;
      }

      .cls-5 {
        fill: #eeeba8;
      }</style>
 </defs>
 <g>
  <title>background</title>
  <rect fill="none" id="canvas_background" height="95" width="295" y="-1" x="-1"/>
 </g>
 <g>
  <title>Layer 1</title>
  <g id="bread">
   <path id="svg_2" d="m4.38531,93.07348c0,0 1.43369,-23.29749 17.92114,-42.29391c16.48746,-18.99641 21.14696,-20.07168 21.06272,-20.31362c0.08424,0.24194 27.32438,18.52151 27.24015,18.27957c0.08423,0.24194 4.3853,-36.67563 4.30107,-36.91756c0.08423,0.24193 21.94803,-6.5681 30.55018,-8.36022c8.60215,-1.79211 29.39068,-3.58422 29.30645,-3.46774c0.08423,-0.11648 12.27061,36.80108 12.18638,36.55914c0.08423,0.24194 10.83692,-37.39247 10.75269,-37.27599c0.08423,-0.11648 32.3423,2.7509 42.73656,6.33513c10.39427,3.58423 25.08961,8.96058 25.00537,8.71864c0.08424,0.24194 -8.87634,36.80107 -8.96057,36.55914c0.08423,0.24193 37.36022,-18.39606 37.27598,-18.638c0.08424,0.24194 15.49643,13.50359 22.66488,28.55735c7.16846,15.05377 11.82796,32.25807 11.74372,32.01613c0.08424,0.24194 -283.78672,0.24194 -283.78672,0.24194z" stroke-opacity="null" stroke-width="null" stroke="null" fill="#e9c18e"/>
  </g>
 </g>
</svg>