<svg id="round_burger" data-name="round burger" xmlns="http://www.w3.org/2000/svg" xmlns:xlink="http://www.w3.org/1999/xlink" width="301" height="154" viewBox="0 0 301 154">
  <defs>
    <style>
      .cls-1, .cls-2, .cls-3, .cls-4, .cls-5, .cls-6, .cls-7 {
        fill-rule: evenodd;
      }

      .cls-1 {
        fill: url(#linear-gradient);
      }

      .cls-2 {
        fill: #f1d9bb;
      }

      .cls-3 {
        fill: #76a159;
      }

      .cls-4 {
        fill: #9bce74;
      }

      .cls-5 {
        fill: #f11543;
      }

      .cls-6 {
        fill: #ffb249;
      }

      .cls-7 {
        fill: #f19556;
      }
    </style>
    <linearGradient id="linear-gradient" x1="150.234" y1="75" x2="150.234" gradientUnits="userSpaceOnUse">
      <stop offset="0" stop-color="#f5cf91"/>
      <stop offset="0.178" stop-color="#f19556"/>
      <stop offset="1" stop-color="#f19556"/>
    </linearGradient>
  </defs>
  <g id="bread">
    <path id="Forme_1" data-name="Forme 1" class="cls-1" d="M9,75S-24.083-.984,151,0C321.64,0.959,292,75,292,75H9Z"/>
    <g id="Groupe_1" data-name="Groupe 1">
      <path id="sesame_seed" data-name="sesame seed" class="cls-2" d="M58.74,46.53s-6.227,2.186-8.3,7.486,2.831,6.48,2.831,6.48a4.7,4.7,0,0,0,6.431-2.85C61.6,52.793,58.74,46.53,58.74,46.53Z"/>
      <path id="sesame_seed_copie" data-name="sesame seed copie" class="cls-2" d="M108.74,24.53s-6.227,2.186-8.3,7.486,2.831,6.48,2.831,6.48a4.7,4.7,0,0,0,6.431-2.85C111.6,30.793,108.74,24.53,108.74,24.53Z"/>
      <path id="sesame_seed_copie_2" data-name="sesame seed copie 2" class="cls-2" d="M246.74,53.53s-6.227,2.186-8.3,7.486,2.831,6.48,2.831,6.48a4.7,4.7,0,0,0,6.431-2.85C249.6,59.793,246.74,53.53,246.74,53.53Z"/>
      <path id="sesame_seed_copie_3" data-name="sesame seed copie 3" class="cls-2" d="M145.74,52.53s-6.227,2.186-8.3,7.486,2.831,6.48,2.831,6.48a4.7,4.7,0,0,0,6.431-2.85C148.6,58.793,145.74,52.53,145.74,52.53Z"/>
      <path id="sesame_seed_copie_4" data-name="sesame seed copie 4" class="cls-2" d="M211.74,24.53s-6.227,2.186-8.3,7.486,2.831,6.48,2.831,6.48a4.7,4.7,0,0,0,6.431-2.85C214.6,30.793,211.74,24.53,211.74,24.53Z"/>
      <path id="sesame_seed_copie_5" data-name="sesame seed copie 5" class="cls-2" d="M159.74,10.53s-6.227,2.186-8.3,7.486,2.831,6.48,2.831,6.48a4.7,4.7,0,0,0,6.431-2.85C162.6,16.793,159.74,10.53,159.74,10.53Z"/>
      <path id="sesame_seed_copie_6" data-name="sesame seed copie 6" class="cls-2" d="M183.74,37.53s-6.227,2.186-8.3,7.486,2.831,6.48,2.831,6.48a4.7,4.7,0,0,0,6.431-2.85C186.6,43.793,183.74,37.53,183.74,37.53Z"/>
      <path id="sesame_seed_copie_7" data-name="sesame seed copie 7" class="cls-2" d="M211.74,55.53s-6.227,2.186-8.3,7.486,2.831,6.48,2.831,6.48a4.7,4.7,0,0,0,6.431-2.85C214.6,61.793,211.74,55.53,211.74,55.53Z"/>
    </g>
  </g>
  <g id="salad">
    <path id="big_leaves" data-name="big leaves" class="cls-3" d="M9,74.975v8H292v-8H9Z"/>
    <path id="Forme_2" data-name="Forme 2" class="cls-4" d="M9,82.977v2.1H292v-2.1S276.086,79,247,79s-42,3.977-42,3.977H176S162.252,78,150.948,78,126,82.977,126,82.977H98s-22.969-3.656-43-3.656S9,82.977,9,82.977Z"/>
  </g>
  <g id="tomato">
    <path id="Forme_3" data-name="Forme 3" class="cls-5" d="M9,86.931H292L294,105H7Z"/>
  </g>
  <g id="chicken">
    <path id="Forme_6" data-name="Forme 6" class="cls-6" d="M2,105.02H300a100.914,100.914,0,0,1,1,13.6A151.325,151.325,0,0,1,300,134H2s-2-4.739-2-13.672A56.252,56.252,0,0,1,2,105.02Z"/>
  </g>
  <g id="bread_bottom" data-name="bread bottom">
    <path id="Forme_7" data-name="Forme 7" class="cls-7" d="M8.99,134h283v20H8.99V134Z"/>
  </g>
</svg>
