<svg width="293" height="165" xmlns="http://www.w3.org/2000/svg">
 <defs>
  <style>.cls-1 {
        fill: #e9c18e;
      }

      .cls-1, .cls-2, .cls-3, .cls-5 {
        fill-rule: evenodd;
      }

      .cls-2 {
        fill: #76a159;
      }

      .cls-3 {
        fill: #9bce74;
      }

      .cls-4 {
        fill: #c37445;
      }

      .cls-5 {
        fill: #eeeba8;
      }</style>
 </defs>
 <g>
  <title>background</title>
  <rect fill="none" id="canvas_background" height="402" width="582" y="-1" x="-1"/>
 </g>
 <g>
  <title>Layer 1</title>
  <g id="bread">
   <path id="svg_2" d="m4.38531,93.07348c0,0 1.43369,-23.29749 17.92114,-42.29391c16.48746,-18.99641 21.14696,-20.07168 21.06272,-20.31362c0.08424,0.24194 27.32438,18.52151 27.24015,18.27957c0.08423,0.24194 4.3853,-36.67563 4.30107,-36.91756c0.08423,0.24193 21.94803,-6.5681 30.55018,-8.36022c8.60215,-1.79211 29.39068,-3.58422 29.30645,-3.46774c0.08423,-0.11648 12.27061,36.80108 12.18638,36.55914c0.08423,0.24194 10.83692,-37.39247 10.75269,-37.27599c0.08423,-0.11648 32.3423,2.7509 42.73656,6.33513c10.39427,3.58423 25.08961,8.96058 25.00537,8.71864c0.08424,0.24194 -8.87634,36.80107 -8.96057,36.55914c0.08423,0.24193 37.36022,-18.39606 37.27598,-18.638c0.08424,0.24194 15.49643,13.50359 22.66488,28.55735c7.16846,15.05377 11.82796,32.25807 11.74372,32.01613c0.08424,0.24194 -283.78672,0.24194 -283.78672,0.24194z" stroke-opacity="null" stroke-width="null" stroke="null" fill="#e9c18e"/>
  </g>
  <g id="salad">
   <path d="m5,92.975l0,8l283,0l0,-8l-283,0z" class="cls-2" id="big_leaves"/>
   <path d="m5,100.977l0,2.1l283,0l0,-2.1s-15.914,-3.977 -45,-3.977s-42,3.977 -42,3.977l-29,0s-13.748,-4.977 -25.052,-4.977s-24.948,4.977 -24.948,4.977l-28,0s-22.969,-3.657 -43,-3.657s-46,3.657 -46,3.657z" class="cls-3" id="Forme_2"/>
  </g>
  <g id="fish">
   <rect id="svg_1" height="32" width="293" y="108" class="cls-4"/>
  </g>
  <g id="cheese">
   <path d="m3,103.075l287,0l0,4.925l-287,0l0,-4.925zm125,5.925l11,-11l18,13l-29,-2z" class="cls-5" id="Forme_5"/>
  </g>
  <g id="cheese_copie">
   <path d="m3,140.075l287,0l0,4.925l-287,0l0,-4.925zm154,7.925l-29,-2" class="cls-5" id="Forme_5-2"/>
  </g>
  <g id="bread_bottom">
   <path d="m4.99,145l283,0l0,20l-283,0l0,-20z" class="cls-1" id="Forme_7"/>
  </g>
 </g>
</svg>