<svg xmlns="http://www.w3.org/2000/svg" width="170" height="170" viewBox="0 0 170 170">
    <path fill="#642369" d="M83.4 19.7s.2 0 .4-.1.4-.3.4-.3l.8-1.2.3 1.5c.1.3.4.7 1 .6.5-.1.7-.5.7-.8l-.4-1.4s1.6-.8 1.9-.9c.4-.2.5-.5.2-.8-.3-.3-.7-.3-.9-.2l-2.2 1.1.9-1.3-1.5-.1-2.6 3.7 1 .2zM87.3 12.9c-.3 0-1.1-.1-1.1-.1l-1.8 2.5 1.3.1c.7 0 1.3 0 1.6-.6.2-.3.1-.6-.2-.7.4-.1.7-.2.8-.5.4-.2.2-.6-.6-.7zm-.8 1.8c-.1.2-.4.3-.6.3h-.2l.4-.6c.4-.1.5.1.4.3zm.6-1c-.1.2-.3.2-.5.2h-.2l.4-.5c.3 0 .5.1.3.3zM89.1 16.9c-.3.5-2.2 3.3-2.2 3.3s.5.1.9.1c.6.1 1 0 1.3-.5.3-.4 2.2-3.4 2.2-3.4s-.5-.1-.9-.1c-.6 0-1 .1-1.3.6zM89.7 24.6c5 1.6 7.6-.6 8-1 .1-.1.2-.2.1-.3 0-.1-.2-.2-.3-.2-3.6-1-9.1-2.2-12.1-2.6h-.3c-.1.2-.1.4-.1.4.1.8 1.8 2.8 4.7 3.7zm5.8-1.1c.4-.3.9.2.5.4-1.5.9-3.3 1-4.9.8 2 0 3.5-.5 4.4-1.2zM92.9 13.4c-.5-.1-1.3-.2-1.3-.2l-1.7 2.6s.4 0 .6.1c.2 0 .5 0 .6-.2.1-.2.5-.7.5-.7l.3.9c.1.3.5.3.7.3.3-.1.4-.3.4-.5l-.4-.7c.4-.1.8-.2 1.1-.6.3-.4 0-.8-.8-1zm-.3.9c-.2.3-.9.3-.9.3l.5-.7c.3 0 .6.1.4.4zM89.5 13.4c.2-.2 0-.4-.2-.4h-.5s-.8 1.1-1.1 1.6c-.4.5-.1 1 .7 1.1.7.1 1.3 0 1.8-.8l1-1.4c.2-.2 0-.4-.3-.4h-.5l-1.1 1.7c-.1.2-.3.4-.6.3-.2 0-.2-.2-.1-.3l.9-1.4zM99.5 15.2c.3.1.4 0 .5-.2.1-.1.2-.3.2-.3-.6-.1-1.7-.3-2.4-.5l-1.7 2.7s1.3.3 2.1.4c.3.1.5 0 .6-.2.1-.2.2-.3.2-.3l-1.4-.3.4-.5s.7.1.8.2c.2 0 .4 0 .5-.2.1-.2.2-.3.2-.3l-1.2-.2.3-.4c0-.1.6 0 .9.1zM95.9 17.3c-.5-.1-.9 0-1.2.5-.1.2-.8 1.3-.8 1.3s-.3-1.3-.6-2c-.1-.4-.7-.4-.7-.4l-.8-.1-2.7 4.1s.7.1.8.1c.6.1 1-.1 1.3-.5.3-.5.9-1.4.9-1.4l.6 2.2c.1.4.4.5.8.6.4.1.8 0 1-.4.7-1.1 2.3-3.8 2.3-3.8s-.5-.1-.9-.2zM95.9 14.6c.2 0 .4.1.6.2.3.2.6.1.8-.1.2-.2 0-.5-.7-.7-1.3-.4-2.4 0-3 .9-.6.9-.1 1.6.9 1.8.6.1.9.1 1.2.1.3-.1.5-.2.6-.4l.7-1.1-1.7-.3s-.1.1-.2.3c-.1.1 0 .3.2.3h.2l-.2.4c-.1.1-.4.1-.6 0-.3-.1-.4-.4-.1-.8.3-.5.8-.7 1.3-.6zM100.4 24.9l-.3-.1-.3.6.2.1.1-.3h.1v.4l.2.1-.1-.4c.1.1.2.1.3-.1.1-.1 0-.2-.2-.3zm.1.2c0 .1-.1.1-.2 0l-.1-.1.1-.2.1.1c0 .1.1.2.1.2z"/>
    <path fill="#642369" d="M100.5 24.7c-.4-.2-.8-.1-1 .2-.2.3 0 .7.4.9.4.2.8.1 1-.2.2-.4 0-.7-.4-.9zm.3.8c-.1.3-.5.3-.8.2-.3-.2-.4-.5-.3-.7.1-.2.5-.3.8-.2.3.1.4.4.3.7zM102.1 19c-.5-.4-1.2-.8-2-.9-1-.2-3.1-.4-4.2 1.4-.9 1.5.2 2.7 1.6 3.2 1 .4 1.9.4 2.4.3.5-.1.8-.4 1-.7.2-.4.9-1.6.9-1.6l-2.9-.7s-.1.1-.3.4c-.2.3-.1.5.4.7.1 0 .4.1.4.1l-.2.4s-.1.2-.8 0c-.9-.3-1-.8-.6-1.5.5-.7 1.2-.9 2-.7.8.2 1.2.5 1.5.7.7.4 1.5-.5.8-1.1zM102.1 15.1c-.3-.1-1.5-.3-1.5-.3l-1.7 2.8.6.1c.3.1.6 0 .7-.2.1-.2.4-.7.4-.7l.5 1.2c.1.2.3.4.7.4.4 0 .6-.3.5-.6-.1-.2-.4-.9-.4-.9.4 0 .9-.1 1.2-.6.2-.5-.2-1-1-1.2zm-.3.9c-.2.4-1 .3-1 .3l.5-.8c.2.1.7.2.5.5z"/>
    <path fill="#642369" d="M87.2 25c-2.3-1.4-3.8-3.3-4.2-5.2l-1-.1.8-1.1c-.1-1.5.4-3 1.5-4.5 2.6-3.6 7.9-5.3 13.2-3.6 1 .3 1.8.7 2.4 1-.9-.6-1.8-1-2.9-1.3-5.6-1.7-11.2.4-13.6 3.8-2.8 3.9-2.1 9.4 2.8 12.6 5.6 3.7 11.5 1.9 14.1.1l-1.7-2.1c-3.6 2.2-7.9 2.5-11.4.4z"/>
    <path fill="#642369" d="M136.9 18.2L77.8 0 42.1 15.7l73.5 26.4h.1l.1.1 32.9 54.2-34.2-52.8-30.3-11.4 17.6 23.5 23.3 11.8-23.4-11.4-18.9-24.4.1-.1-39.5-13.7 35.8 44.7L1 95.2l12.6 35 73.7 40.1L140 139l13-36.1.2.1 15.6-29.9-31.9-54.9zm-32.1 5.5c-3.4 6.3-12.6 7.6-18.9 3.4-5.2-3.4-6.1-9.3-3.1-13.4 2.8-3.9 8.9-5.8 14.5-4.1 6.6 2 10.7 8.3 7.5 14.1zm45.4 78.4l-59.7 34.2-.1.1-.1-.1-82-40-.9-.4.9-.4L79 65.4l.5 1.1-69 29.2 28.8 14.4 42.3-18.9h.2l26.1 13.5L81.6 92l-40.9 18.9 49.6 24.4 59.2-33.4-65.9-34.6 66.6 34.5.2.1-.2.2z"/>
    <path fill="#642369" d="M92.8 10.5c-2.8.2-4.2 1.6-4.2 1.6s-.1.1-.1.2.1.1.2.1c.9.1 3.6.3 5.4.6 2.7.4 4.9.8 6.4 1.1h.3c.1-.1.1-.2.1-.2s-.2-1.3-3-2.5c-1.4-.6-3.4-1-5.1-.9zM90 12c-.2.2-.4 0-.3-.1.4-.4 2-1.2 3.7-1.3-1.1.1-2.5.7-3.4 1.4zm9.4 1.1c-.2.3-.7.1-1.7 0 .4 0 .8-.1.9-.3.2-.3-.5-1.2-2.1-1.8 1.7.5 3.2 1.6 2.9 2.1z"/>
</svg>