<svg xmlns="http://www.w3.org/2000/svg" width="84" height="84" viewBox="0 0 84 84">
    <circle fill="#916B48" cx="26.8" cy="31.2" r="2.1"/>
    <path fill="#916B48" d="M72.1 42.2c-.6-.6-1.6-1.7-2.5-2.9.6-.4 1.1-1 1.1-1.8 0-10.6-12.8-18.8-29.3-18.8-16.4 0-29.3 8.2-29.3 18.8 0 .4.1.8.4 1.2l-1.7 2.4c-.2.2-.4.5-.6.8 0 0-2 3.3-.4 7 .5.3 1.2.6 2.2.6h.2v3.8c0 .7.2 1.3.6 1.7-.4.4-.6.9-.6 1.5 0 5.8 4.7 10.5 10.5 10.5h37.7c5.8 0 10.5-4.7 10.5-10.5 0-.6-.2-1.1-.6-1.5.4-.4.6-1.1.6-1.7v-3.8c.8 0 3.2 0 4-2 .6-2.2-1.3-4-2.8-5.3zM41.4 22.8c12.4 0 23 5.6 24.9 12.6H16.6c1.8-7 12.4-12.6 24.8-12.6zM22.6 62.6c-2.7 0-5.1-1.8-5.9-4.2h29.8l3.1 4.2h-27zm26-8.4h10l-4.9 6.9-5.1-6.9zm11.7 8.4h-2.4l3.1-4.2h5.2c-.9 2.5-3.2 4.2-5.9 4.2zm6.2-11.9H16.3v-3c.2-.1.3-.2.4-.3h5c1.1.9 2.6 1.9 5 1.9s3.9-1 5-1.9h4.7c1.1.9 2.5 1.9 5 1.9 2.4 0 3.9-1 4.9-1.9h4.9c1 .9 2.4 1.9 4.9 1.9 2.4 0 3.9-1 5-1.9H66c.2.2.4.3.6.5v2.8h-.1zm-3.1-9.1c-2.4 0-3.7 1.3-4.7 2.2-.9.8-1.4 1.3-2.7 1.3-1.2 0-1.7-.4-2.5-1.2-1-.9-2.3-2.2-4.8-2.2S44.8 43 43.8 44c-.8.8-1.3 1.2-2.5 1.2-1.3 0-1.8-.5-2.7-1.3-1-.9-2.3-2.2-4.6-2.2s-3.6 1.2-4.6 2.2c-.9.8-1.4 1.3-2.7 1.3-1.3 0-1.9-.6-2.8-1.4-1-.9-2.3-2.1-4.5-2.1s-3.7 1.2-4.9 2.2c-.5.4-.9.7-1.3.9.2-.4.5-.8.8-1.2l2.9-4h47.6c.6.8 1.6 2.1 2.6 3.4-.9-.7-2-1.4-3.7-1.4z"/>
    <circle fill="#916B48" cx="49.8" cy="29.1" r="2.1"/>
    <circle fill="#916B48" cx="35.1" cy="27" r="2.1"/>
    <circle fill="#916B48" cx="56.1" cy="31.2" r="2.1"/>
    <circle fill="#916B48" cx="41.4" cy="31.2" r="2.1"/>
</svg>