<svg xmlns="http://www.w3.org/2000/svg" xmlns:xlink="http://www.w3.org/1999/xlink" width="163.1" height="110.4" viewBox="0 0 170.1 117.4">
    <defs>
        <path id="a" d="M0 0h170.1v117.4H0z"/>
    </defs>
    <clipPath id="b">
        <use xlink:href="#a" overflow="visible"/>
    </clipPath>
    <path clip-path="url(#b)" fill="#E4A770" d="M46.5 21.2L27.4 58.7l5.8 10.7c9-2.4 20-4.2 32.2-5.1l3.8-7.8-18-35.2c4.8-1.1 8.4-5.3 8.4-10.5 0-6-4.8-10.8-10.7-10.8S38.1 4.8 38.1 10.7c0 5.2 3.6 9.4 8.4 10.5M118.8 21.2l-17.9 35.1 3.8 7.9c12.2.9 23.2 2.7 32.2 5.1l5.7-10.6-19.1-37.5c4.8-1.1 8.4-5.4 8.4-10.5 0-5.9-4.8-10.7-10.7-10.7-5.9 0-10.7 4.8-10.7 10.7-.1 5.2 3.5 9.5 8.3 10.5"/>
    <path clip-path="url(#b)" fill="#E4A770" d="M156 3c-7.7 0-14 6.3-14 14s6.3 14 14 14c.5 0 1.1 0 1.6-.1l-36.3 67.3L88.5 31c-1.1.2-2.2.4-3.3.4-1.2 0-2.3-.1-3.5-.4l2.1-4.2c.9-2 1.6-2 2.6 0 .7 1.5 1.9 4 2.1 4.3 6.8-1.5 11.8-7.6 11.8-14.8C100.3 7.8 93.5 1 85.1 1c-8.4 0-15.2 6.8-15.2 15.2 0 7.2 5 13.2 11.8 14.8L48.8 98.3 12.5 31H14c7.8 0 14-6.3 14-14 0-7.8-6.3-14-14-14S0 9.3 0 17c0 5.9 3.6 10.9 8.7 13v-3s.1-2.7 1.5-.2 2.2 4.2 2.2 4.2c-1.3-.1-2.6-.5-3.8-1v65.7c0 7.8 22.8 21.7 76.3 21.7s76.4-13.9 76.4-21.7V30c-1.2.5-2.4.8-3.7.9 0 0 .9-1.7 2.3-4.2s1.5.2 1.5.2v3c5.1-2.1 8.7-7.1 8.7-13C170.1 9.3 163.8 3 156 3"/>
    <path clip-path="url(#b)" fill="#E4A770" d="M161.4 30z"/><path clip-path="url(#b)" fill="#FFF" d="M161.4 30v-3s-.1-2.7-1.5-.2-2.3 4.2-2.3 4.2c1.4-.2 2.6-.5 3.8-1"/>
    <path clip-path="url(#b)" fill="#E4A770" d="M88.5 31z"/>
    <path clip-path="url(#b)" fill="#E4A770" d="M83.8 26.7c-.7 1.5-2.1 4.3-2.1 4.3 1.1.3 2.2.4 3.5.4 1.1 0 2.3-.1 3.3-.4-.1-.3-1.3-2.8-2.1-4.3-1-2-1.7-2-2.6 0M10.2 26.8c-1.4-2.5-1.5.2-1.5.2v3c1.2.5 2.4.8 3.8 1 0 0-.9-1.7-2.3-4.2M157.1 104.9h2.8v.7h-1v2.8h-.7v-2.8h-1v-.7zm5.9 0l-.8 2.4-.9-2.4h-.9v3.5h.7v-2.2l.8 2.2h.6l.8-2.2v2.2h.7v-3.5h-1z"/>
</svg>