<svg xmlns="http://www.w3.org/2000/svg" width="84" height="84" viewBox="0 0 84 84"><path fill="#020202" d="M51.4 69.6c-5.2 1.9-10.3 2.7-15 2.7-11 0-19.9-4.4-23.8-9.3-3.1-3.9-4.8-8.2-5.1-13.4-.2-3.3.5-6.9 2.2-10.3.1.7.1 1.4.3 1.9.4 1.7 2.2 2.6 3.5 3.5 1.8 1.1 1.7 2.6 2.1 4.5.4 2.1 1.5 4 3 5.6 1.3 1.5 2.7 2.4 4.6 2.5 1.9.2 3.8-.2 5.5.3 3.4 1 6.4 3.4 10.1 2.7 1.8-.3 3.4-1.1 5.1-1.8 2-.8 3.6-.5 5.6.1 2 .7 4.1 1.3 5.9.1 1.7-1.1 3.6-2.8 4.8-4.4 1.4-1.8 1.7-4 3-5.8 1.2-1.7 3-1.9 4.8-2.5.9-.3 2.2-.3 2.8-1 .5-.6.7-1.9.8-2.6.2-2.3-.7-3.6-1.6-5.7-.7-1.7.5-2.8.7-4.4.1-1.2-.6-2.7-1.1-3.8-.4-.9-.8-1.9-1.2-2.8.6.6 1.2 1.2 1.7 1.8 2.5 3.1 5.4 9.4 5.4 15.8.1 8.6-6.6 19.9-24.1 26.3zm-1-25.6c-2.4 1.5-5 2.6-7.1 3.3-3.2 1-6.4 1.5-9.3 1.4.1-3.4 2.8-6.6 6.6-7.7 3.8-1.2 7.7 0 9.8 3zm2.8-2c-3-4.1-8.3-5.8-13.6-4.3-5.2 1.5-8.8 5.9-9 10.7-4.7-.8-8.3-3.1-9.4-6.5-1.1-2.9-.8-5.9.8-8.7.2-.4.7-.6 1.2-.3.4.2.6.8.3 1.2-.8 1.4-1.2 2.8-1.2 4.1.6.2 1.2.6 1.6.6 1.6 0 3-1.9 3.5-3.3.7-1.6.5-3.9 2.2-5 1.3-.9 3.5-.3 4.9.2 1.8.7 3.2 1.1 5 0 1.7-1 2.8-2.3 4.8-2.8 1.8-.4 4.1-.3 5.6 1 1.3 1.1 1.2 3.5 3 3.8 1 .2 2-.9 3-.3.1 0 .1.1.2.1.4.4.6 1 .7 1.6.4-1.5.4-2.9 0-4.3-.1-.4.1-.9.5-1.1.4-.1.9.1 1.1.5 1.2 3.7-.3 7.9-4 11.7-.5.4-.8.7-1.2 1.1zm19.6-16.5c-2.7-3.3-6.5-5.9-11-7.6-1.3-1-2.8-1.8-4.3-2.4-6.9-2.7-14.6-2.8-21.8-1.1-1.7.4-3.4.9-5.1 1.5-5.9 2.1-11.6 5.3-15.8 10-1.2 1.3-2.4 2.9-3.3 4.7-.5.5-1 1.1-1.4 1.6-2.2 2.7-3.8 5.6-4.8 8.6-1 2.9-1.4 5.9-1.2 8.9.4 5.9 2.3 10.9 5.9 15.3 2.4 3 6.1 5.6 10.6 7.5 4.8 2 10.3 3.1 15.9 3.1 5.4 0 10.9-1 16.2-2.9 4.4-1.6 8.4-3.6 11.9-6 3.2-2.2 6-4.7 8.2-7.4 4.1-4.9 6.3-10.6 6.3-16-.1-7-3.4-14.1-6.3-17.8z"/></svg>