<svg xmlns="http://www.w3.org/2000/svg" width="84" height="84" viewBox="0 0 84 84"><path fill="#010101" d="M41.06 29.585c-9.178 0-18.738.892-18.738.892L27.93 74.07s6.628 1.53 13.13 1.53 12.873-1.53 12.873-1.53l4.716-43.593c.126-.127-8.54-.892-17.59-.892"/><path fill="#010101" d="M60.05 27.928v-1.402c0-.255 0-.255-.254-.382-.382-.127-.765-.382-1.275-.51l-.38-3.95s0-1.02-3.952-1.403c-3.696-.38-8.923-.51-13.64-.51s-9.94.256-13.638.51c-4.08.383-3.95 1.403-3.95 1.403l-.383 3.95c-.382.128-.765.383-1.275.51-.255.128-.255.128-.255.383v1.402l-.382 1.657h1.53s9.56-.892 18.737-.892c9.05 0 17.718.892 17.718.892h1.912l-.51-1.657zM38.637 5.622v-.255c0-.382-.127-.892-.127-1.275-.255-1.147-.637-2.167-1.53-2.932-.382-.255-.765-.255-1.147-.255-.255 0-.637.127-.892 0a5.873 5.873 0 0 1 1.913 3.314c.127.38.127.89.127 1.274 0 .892-.127 1.785-.51 2.677-.255.638-.765 1.148-1.147 1.658-.51.51-.892 1.147-1.147 1.912-.382 1.147-.382 2.294-.255 3.442.128.637.256 1.275.51 1.912.128.255.128.51.383.637.255.128.892.128 1.147.128h.637c-1.275-1.657-1.53-4.46-.637-6.373.255-.637.765-1.275 1.147-1.657 1.148-1.147 1.53-2.676 1.53-4.206M43.48 5.622v-.255c0-.382-.126-.892-.126-1.275-.255-1.147-.637-2.167-1.53-2.932-.382-.255-.765-.255-1.147-.255-.255 0-.637.127-.892 0a5.873 5.873 0 0 1 1.912 3.314c0 .38.127.89.127 1.274 0 .892-.127 1.785-.51 2.677-.255.638-.765 1.148-1.147 1.658-.51.51-.892 1.147-1.147 1.912-.382 1.147-.382 2.294-.255 3.442.127.637.255 1.275.51 1.912.127.255.127.51.382.637.255.128.892.128 1.147.128h.637c-1.274-1.657-1.53-4.46-.636-6.373.255-.637.765-1.275 1.147-1.657 1.148-1.147 1.53-2.676 1.53-4.206M48.324 5.622v-.255c0-.382-.127-.892-.127-1.275-.255-1.147-.637-2.167-1.53-2.932-.382-.255-.765-.255-1.147-.255-.255 0-.637.127-.892 0A5.873 5.873 0 0 1 46.54 4.22c.127.38.127.89.127 1.274 0 .892-.127 1.785-.51 2.677-.255.638-.765 1.148-1.147 1.658-.51.51-.892 1.147-1.147 1.912-.382 1.147-.382 2.294-.255 3.442.127.637.255 1.275.51 1.912.127.255.127.51.382.637.255.128.892.128 1.147.128h.637c-1.275-1.657-1.53-4.46-.637-6.373.255-.637.765-1.275 1.147-1.657 1.148-1.147 1.53-2.676 1.53-4.206"/></svg>