<svg xmlns="http://www.w3.org/2000/svg" xmlns:xlink="http://www.w3.org/1999/xlink" width="84" height="84" viewBox="0 0 84 84">
    <defs>
        <path fill="#831523" id="a" d="M1-1h82.9v78.2H1z"/>
    </defs>
    <clipPath id="b">
        <use xlink:href="#a" overflow="visible"/>
    </clipPath>
    <path fill="#831523" clip-path="url(#b)" d="M18.6 39.5c-1.2 0-2.1.9-2.1 2.1s.9 2.1 2.1 2.1 2.1-.9 2.1-2.1-1-2.1-2.1-2.1"/>
    <defs>
        <path id="c" fill="#831523" d="M1-1h82.9v78.2H1z"/>
    </defs>
    <clipPath id="d">
        <use xlink:href="#c" overflow="visible"/>
    </clipPath>
    <path fill="#831523" clip-path="url(#d)" d="M64 52.6c-.6-.6-1.6-1.7-2.5-2.9.6-.4 1.1-1 1.1-1.8C62.5 37.3 49.7 29 33.2 29 16.8 29 3.9 37.3 3.9 47.9c0 .4.1.8.4 1.2l-1.7 2.4c-.2.2-.4.5-.6.8 0 0-2 3.3-.4 7 .5.3 1.2.6 2.2.6H4v3.8c0 .7.2 1.3.6 1.7-.4.4-.6.9-.6 1.5 0 5.8 4.7 10.5 10.5 10.5h37.7c5.8 0 10.5-4.7 10.5-10.5 0-.6-.2-1.1-.6-1.5.4-.4.6-1.1.6-1.7v-3.8c.8 0 3.2 0 4-2 .6-2.3-1.3-4-2.7-5.3M33.2 33.2c12.4 0 23 5.6 24.9 12.6H8.4c1.8-7 12.4-12.6 24.8-12.6M14.4 73c-2.7 0-5.1-1.8-5.9-4.2h29.8l3.1 4.2h-27zm26-8.4h10l-4.9 6.9-5.1-6.9zM52.1 73h-2.4l3.1-4.2H58c-.9 2.4-3.2 4.2-5.9 4.2m6.3-12H8.1v-2.9c.2-.1.3-.2.4-.3h5c1.1.9 2.6 1.9 5 1.9s3.9-1 5-1.9h4.7c1.1.9 2.5 1.9 5 1.9 2.4 0 3.9-1 4.9-1.9H43c1 .9 2.4 1.9 4.9 1.9 2.4 0 3.9-1 5-1.9h4.9c.2.2.4.3.6.5V61zm-3.2-9c-2.4 0-3.7 1.3-4.7 2.2-.9.8-1.4 1.3-2.7 1.3-1.2 0-1.7-.4-2.5-1.2-1-1-2.3-2.2-4.8-2.2s-3.9 1.3-4.9 2.3c-.8.8-1.3 1.2-2.5 1.2-1.3 0-1.8-.5-2.7-1.3-1-.9-2.3-2.2-4.6-2.2s-3.6 1.2-4.6 2.2c-.9.8-1.4 1.3-2.7 1.3-1.3 0-1.9-.5-2.8-1.4-1-.9-2.3-2.1-4.5-2.1s-3.7 1.2-4.9 2.2c-.5.4-.9.7-1.3.9.2-.4.5-.8.8-1.2l2.9-4h47.6c.6.8 1.6 2.1 2.6 3.4-.8-.8-2-1.4-3.7-1.4"/>
    <defs>
        <path fill="#831523" id="e" d="M1-1h82.9v78.2H1z"/>
    </defs>
    <clipPath id="f">
        <use xlink:href="#e" overflow="visible"/>
    </clipPath>
    <path fill="#831523" clip-path="url(#f)" d="M41.6 37.4c-1.2 0-2.1.9-2.1 2.1 0 1.2.9 2.1 2.1 2.1 1.2 0 2.1-.9 2.1-2.1 0-1.2-.9-2.1-2.1-2.1"/>
    <g>
        <defs>
            <path fill="#831523" id="g" d="M1-1h82.9v78.2H1z"/>
        </defs>
        <clipPath id="h">
            <use xlink:href="#g" overflow="visible"/>
        </clipPath>
        <path fill="#831523" clip-path="url(#h)" d="M27 35.3c-1.2 0-2.1.9-2.1 2.1 0 1.2.9 2.1 2.1 2.1s2.1-.9 2.1-2.1-1-2.1-2.1-2.1"/>
    </g>
    <g>
        <defs>
            <path fill="#831523" id="i" d="M1-1h82.9v78.2H1z"/>
        </defs>
        <clipPath id="j">
            <use xlink:href="#i" overflow="visible"/>
        </clipPath>
        <path fill="#831523" clip-path="url(#j)" d="M47.9 39.5c-1.2 0-2.1.9-2.1 2.1s.9 2.1 2.1 2.1c1.2 0 2.1-.9 2.1-2.1s-1-2.1-2.1-2.1"/>
    </g>
    <g>
        <defs>
            <path fill="#831523" id="k" d="M1-1h82.9v78.2H1z"/>
        </defs>
        <clipPath id="l">
            <use xlink:href="#k" overflow="visible"/>
        </clipPath>
        <path fill="#831523" clip-path="url(#l)" d="M33.2 39.5c-1.2 0-2.1.9-2.1 2.1s.9 2.1 2.1 2.1 2.1-.9 2.1-2.1-.9-2.1-2.1-2.1"/>
    </g>
    <g>
        <defs>
            <path fill="#831523" id="m" d="M51.594 75.442l-71.648-41.69 39.326-67.585L90.92 7.857z"/>
        </defs>
        <clipPath id="n">
            <use xlink:href="#m" overflow="visible"/>
        </clipPath>
        <path fill="#831523" transform="rotate(-149.807 71.067 16.432)" clip-path="url(#n)" d="M69.014-2.568h4.1v38h-4.1z"/>
    </g>
    <g>
        <defs>
            <path fill="#831523" id="o" d="M1-1h82.9v78.2H1z"/>
        </defs>
        <clipPath id="p">
            <use xlink:href="#o" overflow="visible"/>
        </clipPath>
        <path fill="#831523" clip-path="url(#p)" d="M54.4 36.6l3.5 3.9 1.3 7.2.6 4 2.8 7.7-3 2.5s-6.2.8-6.5 1c-.2.1 1.3.1-1.3 0l-4.5 8.5H76l7.9-54.8H39.6l2.1 15.3 12.7 4.7z"/>
    </g>
</svg>