<svg id="Calque_1" xmlns="http://www.w3.org/2000/svg" width="170" height="170" viewBox="0 0 75 75"><style>.st0{fill-rule:evenodd;clip-rule:evenodd}</style><path class="st0" d="M48.4 12.3V4.9H25.7c-.4 0-.8.2-1.1.5-.3.3-.5.7-.5 1.1v50.9c0 .4.2.8.5 1.1.3.3.7.5 1.1.5h34.9c.4 0 .8-.2 1.1-.5.3-.3.5-.7.5-1.1V18.5h-7.4c-3.6 0-6.4-2.8-6.4-6.2zm14.5 51.5c1.1 0 2.1-.5 2.9-1.2.7-.7 1.2-1.8 1.2-2.9v-43L50.3 0h-27c-2.2 0-4.1 1.8-4.1 4.1v7.1h-7.1C9.9 11.2 8 13 8 15.3v55.6c0 2.2 1.8 4.1 4.1 4.1h39.6c1.1 0 2.1-.5 2.9-1.2.7-.7 1.2-1.8 1.2-2.9v-7.1h7.1zm-34-33.7c-.8 0-1.5.6-1.5 1.4 0 .8.7 1.4 1.5 1.4h28.5c.9 0 1.5-.6 1.5-1.4 0-.8-.7-1.4-1.5-1.4H28.9zm24.8 16.5c1.3 0 2.4 1 2.4 2.1 0 1.2-1.1 2.2-2.4 2.2-1.3 0-2.4-1-2.4-2.2 0-1.1 1.1-2.1 2.4-2.1zm2.8-.4c-.7-.7-1.7-1.1-2.8-1.1-1.1 0-2.1.4-2.8 1.1-.7.6-1.1 1.5-1.1 2.5s.4 1.9 1.1 2.5c.7.6 1.7 1.1 2.8 1.1 1.1 0 2.1-.4 2.8-1.1.7-.6 1.1-1.5 1.1-2.5 0-.9-.4-1.8-1.1-2.5zm-2.8-3c-1.7 0-3.2.6-4.3 1.6-1.1 1-1.8 2.4-1.8 4 0 1.5.7 2.9 1.8 4 1.1 1 2.7 1.6 4.3 1.6 1.7 0 3.2-.6 4.3-1.6 1.1-1 1.8-2.4 1.8-4s-.7-2.9-1.8-4c-1.1-1-2.6-1.6-4.3-1.6zm-24.8-5c-.8 0-1.5.6-1.5 1.4 0 .8.7 1.4 1.5 1.4h28.5c.9 0 1.5-.6 1.5-1.4 0-.8-.7-1.4-1.5-1.4H28.9zm0-16.1c-.8 0-1.5.6-1.5 1.4 0 .8.7 1.4 1.5 1.4h28.5c.9 0 1.5-.6 1.5-1.4 0-.8-.7-1.4-1.5-1.4H28.9zm-5.6 41.7h27.6v4.8c0 .4-.2.8-.5 1.1-.3.3-.7.5-1.1.5H14.5c-.9 0-1.6-.7-1.6-1.6v-51c0-.9.7-1.6 1.6-1.6h4.8v43.7c-.1 2.3 1.8 4.1 4 4.1z"/></svg>