<svg
        xmlns="http://www.w3.org/2000/svg"
        xmlns:xlink="http://www.w3.org/1999/xlink" width="84" height="84" viewBox="0 0 84 84">
    <defs>
        <path fill="#698C2D" id="a" d="M4-7h75v75H4z"/>
    </defs>
    <clipPath id="b">
        <use xlink:href="#a" overflow="visible"/>
    </clipPath>
    <path clip-path="url(#b)" fill="#698C2D" d="M4 43.1v3.3C4.9 52 22.9 68 27 68h29c4.1 0 22.1-16 23-21.6v-3.3H4z"/>
    <defs>
        <path id="c" fill="#698C2D" d="M4-7h75v75H4z"/>
    </defs>
    <clipPath id="d">
        <use xlink:href="#c" overflow="visible"/>
    </clipPath>
    <path clip-path="url(#d)" fill="#698C2D" d="M56.4 30.8c.1-.1 3.3-2.6 3.4-5.6 0-.5-.4-1-.9-1s-1 .4-1 .9c-.1 2.2-2.7 4.2-2.7 4.2s.1-.1.2-.1l-.2.1c-.4.3-.5.9-.2 1.3.4.4 1 .5 1.4.2"/>
    <defs>
        <path id="e" d="M4-7h75v75H4z"/>
    </defs>
    <clipPath id="f">
        <use xlink:href="#e" overflow="visible"/>
    </clipPath>
    <path clip-path="url(#f)" fill="#698C2D" d="M51 25.5c.1-.1 1.5-2.9.6-5-.1-.4-.6-.6-.9-.4-.4.1-.6.6-.4.9.6 1.6-.5 3.8-.5 3.8s0-.1.1-.1l-.1.1c-.2.4 0 .8.3 1 .3.2.7.1.9-.3"/>
    <defs>
        <path id="g" d="M4-7h75v75H4z"/>
    </defs>
    <clipPath id="h">
        <use xlink:href="#g" overflow="visible"/>
    </clipPath>
    <path clip-path="url(#h)" fill="#698C2D" d="M32.1 17.6c0 .2.1 4.2 2.4 6.1.4.3 1 .3 1.3-.1.3-.4.3-1-.1-1.3-1.7-1.4-1.7-4.7-1.7-4.7v.2-.2c0-.5-.4-.9-1-.9-.5 0-.9.4-.9.9"/>
    <defs>
        <path id="i" d="M4-7h75v75H4z"/>
    </defs>
    <clipPath id="j">
        <use xlink:href="#i" overflow="visible"/>
    </clipPath>
    <path clip-path="url(#j)" fill="#698C2D" d="M59.3 40.8c-1.1-.3-3.5-.3-4.3 1.6-.2.5 0 1 .5 1.2s1 0 1.2-.5c.4-1 2.1-.5 2.1-.5.5.1 1-.2 1.1-.7.2-.5-.1-1-.6-1.1"/>
    <g>
        <defs>
            <path id="k" d="M4-7h75v75H4z"/>
        </defs>
        <clipPath id="l">
            <use xlink:href="#k" overflow="visible"/>
        </clipPath>
        <path clip-path="url(#l)" fill="#698C2D" d="M16.1 39.7c-1.1-.3-3.5-.3-4.3 1.6-.2.5 0 1 .5 1.2s1 0 1.2-.5c.4-1 2.1-.5 2.1-.5.5.1 1-.2 1.1-.7.2-.5-.1-1-.6-1.1"/>
    </g>
    <g>
        <defs>
            <path id="m" fill="#698C2D" d="M4-7h75v75H4z"/>
        </defs>
        <clipPath id="n">
            <use xlink:href="#m" overflow="visible"/>
        </clipPath>
        <path clip-path="url(#n)" fill="#698C2D" d="M77.3 36.9c-3.4 1.5-7.4 5.7-5.9 6.5s3.5-.5 5.8-2.2c2.1-1.8 2.6-5.4.1-4.3"/>
    </g>
    <g>
        <defs>
            <path id="o" fill="#698C2D" d="M4-7h75v75H4z"/>
        </defs>
        <clipPath id="p">
            <use xlink:href="#o" overflow="visible"/>
        </clipPath>
        <path clip-path="url(#p)" fill="#698C2D" d="M50.7 31.9c-.6.8-2.4 1.2-3.9.5L46 32v.1c0-.1.2-.5.3-.8l.1-.3c.2-.6.8-1.2 2.8-1.2.8 0 1.2.7 1.3.9.3.5.3 1 .2 1.2m-1.6-4c-1.5.1-3.6.4-4.4 2.4l-.1.3c-.3.7-.7 1.4-.3 2.2.3.8 1.1 1.2 1.8 1.4 2.2.9 4.9.4 6.1-1.1.6-.8.7-2.1.1-3.3-.7-1.2-1.9-2-3.2-1.9"/>
    </g>
    <g>
        <defs>
            <path id="q" fill="#698C2D" d="M4-7h75v75H4z"/>
        </defs>
        <clipPath id="r">
            <use xlink:href="#q" overflow="visible"/>
        </clipPath>
        <path clip-path="url(#r)" fill="#698C2D" d="M30.4 27.5c-.6.8-2.4 1.2-3.9.5l-.8-.4v.1c0-.1.2-.5.3-.8l.1-.3c.2-.6.8-1.2 2.8-1.2.8 0 1.2.7 1.3.9.4.5.4 1 .2 1.2m-1.5-4c-1.5.1-3.6.4-4.4 2.4l-.1.3c-.3.7-.7 1.4-.3 2.2.3.8 1.1 1.2 1.8 1.4 2.2.9 4.9.4 6.1-1.1.6-.8.7-2.1.1-3.3-.8-1.2-2-2-3.2-1.9"/>
    </g>
    <g>
        <defs>
            <path id="s" fill="#698C2D" d="M4-7h75v75H4z"/>
        </defs>
        <clipPath id="t">
            <use xlink:href="#s" overflow="visible"/>
        </clipPath>
        <path clip-path="url(#t)" fill="#698C2D" d="M39.5 31.1v.5c0 .7 0 .9-1.2 1.6-1.2.7-1.4.6-2.5-.4l-.3-.3c-.4-.3-.5-.6-.5-.7 0-.2.5-.8.8-1 1-1 1.7-1.5 2.4-1.5.2.1 1.3 1.2 1.3 1.8m-1.2-3.6c-1.6-.2-2.8.9-3.9 2-.5.5-1.4 1.4-1.3 2.4 0 .7.4 1.4 1.2 2l.3.3c1.4 1.2 2.4 1.9 4.7.6 2-1.2 2.2-2.1 2.1-3.3v-.4c0-1.7-2-3.5-3.1-3.6"/>
    </g>
    <g>
        <defs>
            <path id="u" fill="#698C2D" d="M4-7h75v75H4z"/>
        </defs>
        <clipPath id="v">
            <use xlink:href="#u" overflow="visible"/>
        </clipPath>
        <path clip-path="url(#v)" fill="#698C2D" d="M44.3 19.3c-1.3-.2-4.4-.5-5.1 1.2-.6 1.3-.4 3.8-.4 4.1 0 .4.4.8.8.9.4.1 4.2.6 5.9-.3 1.1-.5 1.6-1.8 1.3-3.2-.2-1.5-1.3-2.6-2.5-2.7M73.8 32c-.1-2-.4-2.5-1.2-3.4l-.1-.1c-.7-.8-1.7-1.1-2.7-.9-1.6.3-2.9 1.7-3.4 2.9-.1.3-.3.6-.4.9-.5 1-1.2 2.3 0 3.9 1.5 2 3.1 2.1 5.3.4.5-.4.9-.6 1.2-.8 1.2-.8 1.4-1.2 1.3-2.9m-30.4 9c-1.2.7-3.9-.2-5-.6.2-.2.4-.5.6-.7.5-.6 1.1-1.2 1.4-1.9.4-.3 2.2 0 4.3.9-.2.7-.5 1.9-1.3 2.3m2.9-3.7c-1.9-.9-6.4-2.6-7.5-.3-.2.5-.7 1-1.1 1.5-.7.8-1.4 1.6-1.2 2.5.1.5.5.9 1.2 1.2 2.2.8 5 1.6 6.7.5 1.5-.9 1.9-2.7 2.2-3.7 0-.2.1-.4.1-.4.2-.5 0-1.1-.4-1.3"/>
    </g>
    <g>
        <defs>
            <path id="w" fill="#698C2D" d="M4-7h75v75H4z"/>
        </defs>
        <clipPath id="x">
            <use xlink:href="#w" overflow="visible"/>
        </clipPath>
        <path clip-path="url(#x)" fill="#698C2D" d="M20.9 30.8c-.1-1.4-.2-1.7-.8-2.3l-.1-.1c-.5-.5-1.1-.8-1.8-.6-1.1.2-1.9 1.1-2.3 1.9l-.3.6c-.4.7-.8 1.6 0 2.6 1 1.3 2.1 1.4 3.6.3.3-.3.6-.4.8-.5.8-.5.9-.8.9-1.9"/>
    </g>
    <g>
        <defs>
            <path id="y" fill="#698C2D" d="M4-7h75v75H4z"/>
        </defs>
        <clipPath id="z">
            <use xlink:href="#y" overflow="visible"/>
        </clipPath>
        <path clip-path="url(#z)" fill="#698C2D" d="M31.4 38.1c.8-1.3.8-2.8.5-3.9-.4-1.3-1.2-2.2-2.3-2.3-.7-.1-1.7.1-2.8 1.2-.6-.9-1.3-1.5-2.2-1.7-.8-.1-1.5.2-2.1.8-.9 1.1-1 3.2-.1 5.4.2.5.7.7 1.2.5s.7-.7.5-1.2c-.8-2-.5-3.2-.2-3.6.1-.1.2-.1.3-.1.3 0 .9.5 1.4 1.9.1.3.4.6.8.6s.7-.1.9-.4c.8-1.2 1.5-1.6 1.9-1.6.3 0 .6.4.8 1 .3.9.1 2.3-.9 3.1-.1.2-.2.6-.1.9s.3.6.6.7c2.2.8 2.9 1.8 2.8 2.3s-1.1 1-2.6.8c-.5-.1-1 .3-1 .8-.1.5.3 1 .8 1 2.8.4 4.4-.9 4.7-2.2.1-1.2-.5-2.8-2.9-4m35.2.6c-.2-.6-1.3-2.1-5-1.3 0-1.1-.3-2.2-1.1-3.1-1-1.1-2.4-1.5-3.7-1.1-.8.3-2 1-2.6 3.2-1.3-.5-2.5-.5-3.4 0s-1.4 1.4-1.4 2.3c0 1.5 1.1 3 3 4.1.4.3 1 .1 1.3-.3.3-.4.1-1-.3-1.3-1.6-.9-2.1-1.9-2.1-2.4 0-.4.2-.6.4-.7.5-.3 1.5-.3 2.7.5.3.2.6.2.9 0 .3-.1.5-.4.5-.7.2-1.6.7-2.7 1.5-2.9.5-.2 1.2 0 1.7.6.7.7.8 1.7.4 2.7-.1.3-.1.7.2 1 .2.3.6.4 1 .2 2.8-.9 4-.5 4.2-.2.2.4-.4 1.6-2.5 2.7-.5.2-.6.8-.4 1.3.2.5.8.6 1.3.4 2.7-1.4 4.1-3.4 3.4-5"/>
    </g>
    <g>
        <defs>
            <path id="A" fill="#698C2D" d="M4-7h75v75H4z"/>
        </defs>
        <clipPath id="B">
            <use xlink:href="#A" overflow="visible"/>
        </clipPath>
        <path clip-path="url(#B)" fill="#698C2D" d="M21 36.3c-.4-.4-1.7-1.4-4.6.3-.3-1-.9-1.8-1.8-2.3-1.2-.6-2.5-.6-3.4.2-.7.5-1.5 1.5-1.3 3.5-1.2 0-2.3.3-2.9 1s-.8 1.6-.5 2.4c.4 1.3 1.8 2.2 3.8 2.6.5.1.9-.2 1-.7s-.2-.9-.7-1c-1.6-.3-2.3-1-2.5-1.5-.1-.3 0-.6.2-.7.4-.4 1.2-.7 2.5-.4.3.1.6 0 .8-.2s.3-.5.2-.8c-.3-1.4-.1-2.5.5-2.9.4-.3 1-.3 1.6 0 .8.4 1.2 1.2 1.1 2.2 0 .3.2.6.4.8.3.2.6.1.9-.1 2.1-1.6 3.3-1.6 3.5-1.4.2.3.1 1.5-1.4 3-.3.3-.3.9 0 1.2s.9.3 1.2 0c1.9-1.9 2.4-4 1.4-5.2"/>
    </g>
    <g>
        <defs>
            <path id="C" fill="#698C2D" d="M4-7h75v75H4z"/>
        </defs>
        <clipPath id="D">
            <use xlink:href="#C" overflow="visible"/>
        </clipPath>
        <path clip-path="url(#D)" fill="#698C2D" d="M28.4 39.7c-.1-.1-1.1-1.4-2.3-1.6-.6-.1-1.2.1-1.7.5-.4.4-.4 1-.1 1.4s.9.4 1.3.1c.1-.1.2-.1.2-.1.3 0 .8.5 1 .8.3.4.9.5 1.3.2.5-.3.6-.9.3-1.3"/>
    </g>
</svg>