<svg xmlns="http://www.w3.org/2000/svg" width="84" height="84" viewBox="0 0 84 84"><path d="M74.422 44.252c0-.112.112-.223.112-.446-.112-11.832-14.4-20.985-32.817-20.985-18.306 0-32.705 9.266-32.705 20.986 0 .112 0 .335.112.446h65.298zM41.717 27.397c13.84 0 25.673 6.25 27.794 14.064H14.036c2.01-7.812 13.84-14.063 27.682-14.063z"/><path d="M74.31 43.917H8.9v2.79c0 .782.223 1.452.67 1.9-.447.445-.67 1.003-.67 1.673C8.9 56.754 14.146 62 20.62 62H62.7c6.475 0 11.72-5.246 11.72-11.72 0-.67-.222-1.228-.67-1.674.447-.446.67-1.228.67-1.898v-2.79h-.11zm-53.8 13.395c-3.015 0-5.694-2.01-6.587-4.688h33.263l3.46 4.688H20.51zm29.132-9.376h11.162l-5.47 7.813-5.692-7.814zm12.948 9.376h-2.68l3.46-4.688h5.805c-.892 2.79-3.57 4.688-6.585 4.688z"/></svg>