<svg xmlns="http://www.w3.org/2000/svg" width="84" height="84" viewBox="0 0 84 84">
    <path fill="#AD6A00" d="M60.8 31c-1.1.3-2.9 1-4.8 2.2l.2-1.1 6.2-13.5 3.4 1.6-5 10.8zM21.6 19.1l1.2 3.1 2.5 10.1c-1.3-.6-2.4-1-3.1-1.3l-4.1-10.6 3.5-1.3zm5-10.1l2.9 12.1v13.8c-.2-.1-.4-.3-.6-.4l-6-24.6 3.7-.9zm9.6 10.5v25.6l-1.5-.9c0-2.5-.9-4.6-2.2-6.4V19.5h3.7zm7.6-12v39.4c-1.4.6-2.4.6-3.8.2V7.5h3.8zm6.7 18.8v12.3c-.9 1.5-1.5 3.4-1.5 5.7-.9.4-1.6.8-2.2 1.2V26.3h3.7zm1.9-12.1l3.7.6-2.6 15v-4.3c0-1.2-1-2.2-2.2-2.2h-.4l1.5-9.1zm15.3 3.6L63 15.6c-.3-.1-.6-.2-.9-.2-.9 0-1.7.5-2 1.3l-1.9 4.1 1.1-6.2c.2-1.2-.6-2.4-1.8-2.6l-5.2-.9h-.4c-1.1 0-2 .8-2.2 1.9l-1.8 10.3h-1V6.8c0-1.2-1-2.2-2.2-2.2h-5.2c-1.2 0-2.2 1-2.2 2.2v9.8h-5.5l-2.2-9c-.2-1-1.2-1.7-2.2-1.7-.2 0-.4 0-.5.1l-5.1 1.2c-1.2.3-1.9 1.5-1.7 2.7l1.5 6.1-4.9 1.9c-1.2.4-1.7 1.7-1.3 2.9l4.2 11.1c-.5.3-.6.7-.6 1.1l3 39.8c0 1.2 1 2.2 2.2 2.2h34.6c1.2 0 2.2-1 2.2-2.2L64 33c0-.4-.1-.8-.3-1.1l5.1-11.1c.6-1.1.1-2.5-1.1-3z"/>
</svg>