<?xml version="1.0" encoding="UTF-8" standalone="no"?>
<svg width="100px" height="90px" viewBox="0 0 100 90" version="1.1" xmlns="http://www.w3.org/2000/svg" xmlns:xlink="http://www.w3.org/1999/xlink">
    <!-- Generator: Sketch 39.1 (31720) - http://www.bohemiancoding.com/sketch -->
    <title>Shape@2x</title>
    <desc>Created with Sketch.</desc>
    <defs></defs>
    <g id="Designs" stroke="none" stroke-width="1" fill="none" fill-rule="evenodd">
        <g id="Homepage-Mobile" transform="translate(-227.000000, -1337.000000)" fill="#A2394A">
            <g id="Group-16" transform="translate(0.000000, 1277.000000)">
                <g id="Group-12" transform="translate(194.000000, 59.000000)">
                    <path fill="#A2394A" d="M94.6715237,29.2784854 L111.562291,12.390112 C112.266073,11.6864298 113.497691,11.6864298 114.260122,12.390112 C114.963904,13.0937942 115.022552,14.3252381 114.260122,15.0875605 L97.3693546,31.9759339 C96.6655727,32.6796162 95.4339542,32.6796162 94.6715237,31.9759339 C93.9090933,31.2136115 93.9090933,29.9821676 94.6715237,29.2784854 M119.655784,17.8436492 C120.359566,18.5473315 120.418214,19.7787754 119.655784,20.4824576 L102.765016,37.370831 C102.061234,38.0745132 100.829616,38.0745132 100.067186,37.370831 C99.3634035,36.6671488 99.304755,35.4357049 100.067186,34.6733825 L116.957953,17.8436492 C117.720383,17.0813268 118.893353,17.0813268 119.655784,17.8436492 M125.110094,23.2971865 C125.813876,24.0008687 125.872524,25.2323126 125.110094,25.9359948 L108.219327,42.8243683 C107.515545,43.5280505 106.283926,43.5280505 105.521496,42.8243683 C104.759065,42.0620459 104.759065,40.8892421 105.521496,40.1269197 L122.412263,23.2385463 C123.174693,22.5348641 124.347663,22.5348641 125.110094,23.2971865 M123.116045,40.830602 C132.499805,31.4481723 134.200611,17.9609296 126.869549,10.6309064 C119.597135,3.35952342 106.049332,5.00144862 96.6655727,14.3838783 C88.1615405,22.8867052 85.9915461,34.7906629 91.0939654,42.3552468 L83.9388487,49.5093494 L76.8423806,42.413887 L83.0004728,36.2566675 C85.7569521,33.5005788 85.7569521,29.0439247 83.0004728,26.3464761 L58.6026979,2.01079916 L32.445468,28.2229621 L56.7845945,52.5586391 C59.5410738,55.3147278 63.9983596,55.3147278 66.6961905,52.5586391 L72.8542827,46.4014196 L79.9507509,53.496882 L71.6226643,61.8824286 C68.5142939,60.123223 64.8780871,60.1818632 62.7080927,62.35155 L49.2775868,75.7801525 C46.5211074,78.5362412 47.1075924,83.520657 50.5092052,86.9217878 L50.6265022,87.0390681 C54.0281151,90.4401989 59.0132374,90.9679606 61.7697167,88.270512 L75.2002226,74.9005497 C77.370217,72.7308629 77.4288655,69.0951714 75.6694106,65.9872415 L83.9974972,57.601695 L92.2669354,65.8699612 C90.5074804,68.977891 90.5661289,72.6135825 92.7361233,74.7832694 L106.166629,88.2118718 C108.923109,90.9679606 113.908231,90.3815587 117.309844,86.9804279 L117.427141,86.8631476 C120.828754,83.4620168 121.35659,78.477601 118.658759,75.7215123 L105.286902,62.2929099 C103.116907,60.123223 99.4807005,60.0645828 96.3723302,61.8237884 L87.9269466,53.5555222 L95.0820632,46.4014196 C102.706368,51.5031157 114.612013,49.3334289 123.116045,40.830602" id="Shape" transform="translate(81.936228, 46.000000) rotate(2.000000) translate(-81.936228, -46.000000) "></path>
                </g>
            </g>
        </g>
    </g>
</svg>